# xmcd CD database file
#
# Track frame offsets:
#	150
#	39975
#	91987
#	142625
#	189422
#
# Disc length: 3208 seconds
#
# Revision: 0
# Processed by: cddbd v1.5PL3 Copyright (c) Steve Scherf et al.
# Submitted via: CDex 1.50
#
DISCID=310c8605
DTITLE=Manhattan Jazz Quintet - Take Five
DYEAR=1900
DGENRE=Jazz
TTITLE0=Caravan
TTITLE1=A Dawn In Asia
TTITLE2=Take Five 
TTITLE3=Manteca
TTITLE4=A Night In Tunisia
EXTD=
EXTT0=
EXTT1=
EXTT2=
EXTT3=
EXTT4=
PLAYORDER=
